<svg viewBox="0 0 1792 2309.2599" xmlns="http://www.w3.org/2000/svg"><path d="M336 256h1120q139 0 237.5 98.5T1792 592v1120q0 139-98.5 237.5T1456 2048H336q-139 0-237.5-98.5T0 1712V592q0-139 98.5-237.5T336 256zm339 507v285h322q50 0 85-41.5t35-100.5-35-101-85-42H675zm0 911v-418h322q50 0 85 41.5t35 100.5v276q0 31 22 53t53 22h98q30 0 52-22t22-53v-276q0-87-24.5-140t-77.5-106q102-102 102-246 0-145-104-248t-251-103H502q-30 0-52 22t-22 53v1044q0 31 22 53t52 22h98q31 0 53-22t22-53z"/>
    <style>
        path { fill: #000; }
        @media (prefers-color-scheme: dark) {
            path { fill: #FFF; }
        }
    </style>
</svg>