                                                                                                                                                                                                                                                                                                                                                                                                                                                                            <svg enable-background="new 0 0 128 128" viewBox="0 0 128 128" xmlns="http://www.w3.org/2000/svg"><path d="m51.5 70.7h4c13.7 0 24.7 11.1 24.7 24.7v9.9h-53.4v-9.9c0-13.6 11-24.7 24.7-24.7z" fill="#005086"/><path d="m71.1 53.2c0 2.1-.4 4.2-1.1 6.2-3.4 9-13.5 13.6-22.5 10.1-9-3.4-13.6-13.5-10.1-22.5 3.4-9 13.5-13.6 22.5-10.1 6.7 2.6 11.2 9.1 11.2 16.3z" fill="#f7d6bf"/><path d="m103 56.4-2 3.4c-.8 1.3-2.5 1.8-3.8 1l-3-1.7c-2 1.9-4.4 3.2-7 4v3.4c0 1.6-1.3 2.8-2.8 2.8h-4c-1.6 0-2.8-1.3-2.8-2.8v-3.4c-2.6-.8-5-2.1-7-4l-.7.4c3.2-8.3-.4-17.7-8.4-21.8.1-.2.1-.3.2-.5l2-3.4c.8-1.3 2.5-1.8 3.8-1l3 1.7c2-1.9 4.4-3.2 7-4v-3.4c0-1.6 1.3-2.8 2.8-2.8h4c1.6 0 2.8 1.3 2.8 2.8v3.4c2.6.8 5 2.1 7 4l3-1.7c1.3-.8 3.1-.3 3.8 1l2 3.4c.8 1.3.3 3.1-1 3.8l-3 1.7c.7 2.6.7 5.4 0 8l3 1.7c1.4.9 1.9 2.6 1.1 4z" fill="#318fb5"/><ellipse cx="82.4" cy="46.8" fill="#fff" rx="8.1" ry="8"/><path d="m26.1 88.1c.1-.4.2-.7.3-1.1.3-.9 1.3-1.4 2.2-1.1s1.4 1.3 1.1 2.2c-.1.3-.2.6-.3.9-.3.9-1.3 1.4-2.2 1.2-.9-.3-1.4-1.2-1.1-2.1zm78.4-30.8-2 3.4c-1.3 2.2-4 2.9-6.2 1.7l-1.9-1.1c-1.6 1.3-3.5 2.4-5.5 3.1v2.2c0 2.5-2 4.6-4.6 4.6h-4c-2.5 0-4.6-2-4.6-4.6v-2.2c-1.8-.7-3.4-1.6-4.9-2.7-1.7 3.6-4.5 6.5-8 8.4 11.4 3.2 19.2 13.6 19.2 25.4v9.9c0 1-.8 1.7-1.8 1.8h-53.4c-1 0-1.7-.8-1.8-1.8v-9.9c0-1 .8-1.8 1.8-1.8s1.8.8 1.8 1.8v8.1h50v-8.1c0-12.7-10.3-23-23-23-.2 0-4.3 0-4 0-7.6 0-14.8 3.8-19.1 10.1-.6.8-1.6 1-2.4.4-.8-.5-1-1.6-.5-2.4 3.5-5.1 8.6-8.9 14.6-10.6-9.3-5.1-12.7-16.8-7.5-26.1 3.4-6.1 9.9-10 16.9-9.9 2.5 0 5 .5 7.3 1.4l1.4-2.4c1.3-2.2 4-2.9 6.2-1.7l1.9 1.1c1.6-1.3 3.5-2.4 5.5-3.1v-2.2c0-2.5 2-4.6 4.6-4.6h4c2.5 0 4.6 2 4.6 4.6v2.2c2 .7 3.8 1.8 5.5 3.1l1.9-1.1c2.2-1.2 5-.5 6.2 1.7l2 3.4c1.3 2.2.5 5-1.6 6.2l-1.9 1.1c.4 2 .4 4.1 0 6.2l1.9 1.1c1.9 1.3 2.7 4.1 1.4 6.3zm-36.2 1.5c3.9-10.3-3.8-21.3-14.8-21.3-8.7 0-15.8 7-15.8 15.7s7 15.8 15.7 15.8h.1c6.6-.1 12.4-4.1 14.8-10.2zm32.8-4.7-3-1.7c-.7-.4-1-1.2-.8-1.9.6-2.4.6-4.8 0-7.2-.2-.8.1-1.6.8-1.9l3-1.7c.5-.3.7-.9.4-1.4l-2-3.4c-.3-.5-.9-.7-1.5-.4l-3 1.7c-.7.4-1.5.3-2.1-.2-1.8-1.7-3.9-2.9-6.3-3.6-.7-.2-1.3-.9-1.3-1.7v-3.4c0-.6-.5-1.1-1.1-1.1h-4c-.6 0-1.1.5-1.1 1.1v3.4c0 .8-.5 1.5-1.3 1.7-2.3.7-4.5 1.9-6.3 3.6-.6.5-1.4.6-2.1.2l-3-1.7c-.5-.3-1.2-.1-1.5.4l-1 2.1c5.4 3.4 8.9 9.5 8.9 16.2 0 1.5-.2 3.4-.6 4.9 1.7 1.5 3.7 2.6 5.9 3.2.7.2 1.3.9 1.3 1.7v3.4c0 .6.5 1.1 1.1 1.1h4c.6 0 1.1-.5 1.1-1.1v-3.4c0-.8.5-1.5 1.3-1.7 2.3-.7 4.5-1.9 6.3-3.6.6-.5 1.4-.6 2.1-.2l3 1.7c.5.3 1.2.1 1.5-.4l2-3.4c0-.4-.2-1-.7-1.3zm-8.9-7.3c0 5.4-4.3 9.9-9.8 9.9-5.4 0-9.9-4.3-9.9-9.8s4.3-9.9 9.8-9.9h.1c5.4 0 9.8 4.4 9.8 9.8zm-3.5 0c0-3.5-2.8-6.4-6.3-6.4s-6.4 2.8-6.4 6.3 2.8 6.4 6.3 6.4h.1c3.5 0 6.3-2.8 6.3-6.3z" fill="#172956"/></svg>